<svg width="213" height="226" viewBox="0 0 213 226" fill="none" xmlns="http://www.w3.org/2000/svg">
<path d="M163.146 201.442C164.823 200.138 166.527 198.808 168.261 197.469C185.755 183.939 194.61 172.338 203.107 151.376C210.987 131.922 214.342 110.181 211.8 89.4404C209.705 72.0445 202.332 51.3225 192.331 36.9353C182.061 22.2533 156.818 7.07737 134.217 5.3153C111.617 3.55323 70.9087 -8.41764 36.4248 14.0312C15.6058 27.5875 6.25129 49.9411 1.40077 75.2846C-1.45478 90.1969 1.17475 108.156 2.83071 123.142C6.46425 156.001 12.7186 184.426 40.8438 204.745C58.7942 217.693 80.8302 225.038 102.997 225.216C126.893 225.403 144.713 215.763 163.146 201.442Z" fill="url(#paint0_linear_1458_11577)" fill-opacity="0.4"/>
<defs>
<linearGradient id="paint0_linear_1458_11577" x1="134.652" y1="200.924" x2="217.015" y2="9.46768" gradientUnits="userSpaceOnUse">
<stop stop-color="#688DD1"/>
<stop offset="1" stop-color="#5F4EC4"/>
</linearGradient>
</defs>
</svg>
