<svg width="22" height="24" viewBox="0 0 22 24" fill="none" xmlns="http://www.w3.org/2000/svg">
<path d="M8.64106 3.94675C10.8764 3.32751 13.2595 3.52757 15.3604 4.51081C17.4612 5.49406 19.1415 7.19576 20.098 9.30889C21.0545 11.422 21.2243 13.8074 20.5768 16.0348C19.9293 18.2621 18.507 20.1846 16.5666 21.4556C14.6263 22.7265 12.2955 23.2621 9.99498 22.9658C7.69445 22.6695 5.57563 21.5607 4.02069 19.8395C2.46575 18.1183 1.57715 15.8981 1.51519 13.5794C1.45324 11.2607 2.22196 8.99618 3.68277 7.19443" stroke="white" stroke-width="1.67442" stroke-miterlimit="10" stroke-linecap="round"/>
<path d="M10.7736 5.90816L8.30821 4.98362C7.70595 4.75777 7.51157 4.0019 7.93016 3.51353L9.84733 1.27676" stroke="white" stroke-width="1.67442" stroke-linecap="round"/>
</svg>
