<svg width="390" height="188" viewBox="0 0 390 188" fill="none" xmlns="http://www.w3.org/2000/svg">
<path d="M428.112 156.445C417.364 150.69 411.946 141.844 398.641 137.799C384.772 133.593 368.656 136.687 356.022 142.164C342.386 148.078 329.884 154.965 315.38 160.1C301.273 165.092 285.15 169.032 269.118 167.916C254.304 166.881 241.29 162.282 229.008 157.743C215.864 152.907 202.615 148.251 188.523 144.393C160.093 136.595 128.796 131.524 96.4832 132.493C79.1729 133.011 62.2017 136.114 44.9147 137.218C31.198 138.094 16.5271 137.316 5.32882 132.538C2.84802 131.451 0.623519 130.169 -1.29185 128.722C-1.63102 128.463 -0.897562 128.161 -0.558804 128.413C8.4677 135.158 23.7074 137.334 37.9675 137.04C55.5421 136.687 72.7806 133.219 90.3199 132.274C121.56 130.581 152.269 134.709 180.316 141.692C194.692 145.316 208.547 149.588 221.772 154.474C234.501 159.133 247.206 164.358 261.975 166.597C296.072 171.703 326.126 155.155 352.18 143.26C363.525 138.083 377.15 133.923 391.138 135.664C397.986 136.602 404.146 138.701 408.922 141.724C413.717 144.594 417.298 148.033 421.407 151.224C423.592 152.962 426.032 154.573 428.7 156.04C429.095 156.261 428.518 156.665 428.112 156.445Z" fill="#8870E6"/>
<path d="M392.863 168.399C389.385 148.081 367.477 131.462 343.222 119.397C316.503 106.111 284.037 96.2693 249.755 96.1572C233.657 96.0352 217.716 98.2067 203.07 102.517C187.895 107.089 176.023 114.308 165.32 122.486C159.93 126.604 154.782 130.858 149.324 134.944C143.722 139.117 137.733 143.396 130.691 146.567C127.147 148.264 123.01 149.374 118.645 149.8C113.448 150.192 108.271 149.245 103.576 147.875C96.0609 145.676 89.2799 142.5 83.0494 139.055C70.9845 132.396 60.6197 124.536 47.9753 118.307C30.8808 109.859 9.84067 105.409 -11.6923 105.687C-11.7782 105.696 -11.8563 105.725 -11.9127 105.768C-11.9691 105.81 -12 105.865 -12 105.921C-12 105.977 -11.9691 106.031 -11.9127 106.074C-11.8563 106.117 -11.7782 106.145 -11.6923 106.154C6.03497 105.949 23.4978 108.946 38.7213 114.806C52.7085 120.213 63.6722 128.08 75.4279 135.237C80.9252 138.695 86.8715 141.844 93.2017 144.648C99.9634 147.532 107.875 150.348 116.182 150.367C124.141 150.367 130.942 147.377 136.651 144.088C142.706 140.492 148.343 136.613 153.516 132.484C164.142 124.274 174.091 115.498 187.489 109.057C200.617 102.747 216.314 98.929 232.465 97.4092C266.949 94.1515 301.241 101.682 329.853 113.822C356.147 124.972 381.745 140.681 390.004 160.924C390.996 163.379 391.713 165.877 392.148 168.399C392.148 168.698 392.921 168.698 392.873 168.399H392.863Z" fill="#8870E6"/>
<circle cx="166.215" cy="39.297" r="5.89462" fill="#8870E6"/>
<circle cx="260.527" cy="176.836" r="5.89462" fill="#8870E6"/>
<path d="M123.305 105.867C126.464 119.636 134.05 119.435 142.936 119.199C152.723 118.94 164.087 118.638 172.847 136.921C186.702 165.913 231.929 163.106 251.358 131.354C279.903 84.7051 243.052 32.2987 204.387 26.9844M123.305 105.867L123.792 105.755C123.792 105.755 123.792 105.755 123.792 105.755M123.305 105.867L123.792 105.755M123.305 105.867C114.891 69.126 151.189 19.7331 204.387 26.9844M123.792 105.755C125.43 112.894 128.239 116.101 131.691 117.56C133.441 118.3 135.393 118.607 137.516 118.712C139.232 118.797 141.033 118.749 142.914 118.699C143.367 118.687 143.825 118.675 144.288 118.665C149.025 118.558 154.177 118.63 159.2 120.969C164.239 123.315 169.082 127.907 173.297 136.705L173.298 136.705C180.118 150.977 194.669 157.454 209.979 156.417C225.291 155.381 241.305 146.825 250.932 131.092C265.099 107.941 263.042 83.3684 252.636 63.905C242.219 44.4223 223.465 30.1116 204.319 27.48M123.792 105.755C119.629 87.5778 126.523 66.207 141.11 50.2665C155.684 34.3397 177.9 23.8791 204.319 27.48M204.319 27.48C204.319 27.4801 204.319 27.4801 204.319 27.4801L204.387 26.9844M204.319 27.48L204.387 26.9844" stroke="#8870E6" stroke-opacity="0.4"/>
<path d="M174.195 50.8787L174.195 50.8788C183.626 53.3297 190.255 52.5863 195.296 50.2444C200.321 47.9097 203.7 44.0147 206.675 40.3206C206.966 39.96 207.252 39.6018 207.535 39.2473C208.711 37.7756 209.836 36.367 211.008 35.1089C212.458 33.5516 213.952 32.2562 215.645 31.3946C218.985 29.6945 223.244 29.6147 229.746 32.9674C246.298 41.5097 258.153 60.5732 260.902 82.0199C263.649 103.448 257.294 127.197 237.501 145.089C223.141 158.041 200.124 163.158 178.542 158.558C156.98 153.963 136.908 139.683 128.388 113.905L127.913 114.062L128.388 113.905C122.597 96.3881 126.403 78.6133 135.492 66.228C144.58 53.844 158.908 46.8896 174.195 50.8787Z" stroke="#8870E6" stroke-opacity="0.4"/>
</svg>
